<svg xmlns="http://www.w3.org/2000/svg" width="300" height="300" viewBox="0 0 300 300"><circle fill="#FFF" cx="150.772" cy="150.104" r="148.865"/><g fill="#212121"><path d="M289.943 148.66c0 77.234-62.618 139.85-139.853 139.85-77.235 0-139.853-62.615-139.853-139.85 0-77.236 62.617-139.853 139.853-139.853 77.235 0 139.853 62.617 139.853 139.852z"/><path d="M290.755 148.75c0 77.233-62.62 139.852-139.853 139.852-77.236 0-139.853-62.618-139.853-139.853C11.05 71.514 73.665 8.896 150.9 8.896c77.234 0 139.853 62.618 139.853 139.852z"/><path d="M289.49 149.05c0 77.232-62.62 139.85-139.853 139.85-77.235 0-139.853-62.617-139.853-139.85 0-77.235 62.618-139.853 139.853-139.853 77.234 0 139.853 62.618 139.853 139.852z"/><path d="M289.55 148.266c0 77.232-62.618 139.853-139.853 139.853-77.235 0-139.853-62.62-139.853-139.854 0-77.234 62.618-139.853 139.853-139.853 77.235 0 139.854 62.62 139.854 139.853z"/></g><path fill="#FFF" d="M239.656 149.383c0 49.48-40.126 89.605-89.607 89.605-49.485 0-89.61-40.125-89.61-89.605 0-49.485 40.126-89.61 89.61-89.61 49.48 0 89.606 40.124 89.606 89.61z"/><path fill="#212121" d="M130.98 157.647c-29.544 2.41-30.74 35.05-21.683 42.997 4.438 6.382 21.568-12.532 24.86-19.903 3.29-7.368 2.783-21.444-3.176-23.093z"/><path fill="#212121" stroke="#212121" stroke-linecap="round" stroke-linejoin="round" stroke-miterlimit="10" d="M216.192 122.654s-23.705 21.13-45.76 34.84c.276 1.87 1.32 3.17 3.687 3.71 18.368-13.36 42.072-38.55 42.072-38.55z"/><path fill="#FFF" stroke="#FFF" stroke-linecap="round" stroke-linejoin="round" stroke-miterlimit="10" d="M229.273 107.484c1.136 2.21 1.03 3.413 2.705 5.558 51.662-50.866 33.884-55.482-7.862-38.292 79.858-29.273 10.215 30.253 5.157 32.734z"/><g><path fill="#F12A27" d="M93.403 207.976l8.362-5.506c28.45-18.732 31.486-46.58 36.996-97.133 1.95-17.874 4.157-38.132 7.875-61.838l5.93.015c3.23 21.353 5.425 40.1 7.362 56.64 6.37 54.412 9.88 84.384 38.433 102.278l8.843 5.542h-113.8z"/><path fill="#FFF" d="M149.6 43.964c14.044 92.833 8.528 136.796 47.167 161.012h-93.353c39.858-26.243 31.737-68.898 46.185-161.012m-5.93-.93c-3.728 23.777-5.94 44.072-7.892 61.98-5.587 51.264-8.392 76.995-35.663 94.95L83.39 210.978h134.25l-17.687-11.084c-27.334-17.13-30.58-44.853-37.046-100.084-1.94-16.565-4.138-35.34-7.375-56.742l-11.86-.033z"/><g><path fill="#FFF" stroke="#FFF" stroke-linejoin="round" stroke-miterlimit="10" d="M149.613 18.873c-3.176 13.372-6.644 22.23-13.957 28.498 12.512-.583 15.878-.663 27.245-.04-6.392-5.976-9.944-14.96-13.287-28.457z"/></g></g><g><path fill="#ED2B2B" d="M290.995 147.357l-25.645 25.606-6.933-1.035-17.456 1.035L237.81 175l-11.84 3.28-5.782 11.534v3.975l-9.033 5.6-7.587 6.143-1.446 2.53-10.298-1.81-6.684-.72-4.155-2.17-6.323-1.445-8.13 1.446-9.214-3.614-18.065-5.223-16.98 1.61-14.273 6.324-5.962 2.89-6.142-5.96-8.49-7.047-12.105-5.124-11.743-1.38-5.6.54-6.143-3.432-5.6-1.626-3.253-6.684-3.975-6.323-6.143-6.503-3.07-5.42-3.072-6.288-3.25-4.552-6.144-5.6s-4.697-7.082-7.066-4.304c-3.774 27.153 4.28 74.51 36.693 108.502 22.643 24.207 54.984 42.844 97.5 45.11 106.106 1.74 143.8-85.244 145.51-124.558 1.06-15.688 1.052-17.345 1.052-17.345"/><g fill="#FFF"><path d="M290.892 143.785c-4.41 3.205-15.386 9.19-26.83 28.145.996.63 2.207 1.103 3.517 1.78 5.093-9.025 19.9-22.1 23.423-23.48.002-2.19.002-4.71-.11-6.445z"/><path d="M279.026 187.22c-17.537-23.89-36.965-11.92-38.488-12.338-1.785-1.17-1.365-.84-2.73-1.68 3.78-3.834 30.034-10.66 41.218 14.018z"/><path d="M247.468 181.82c-12.497-14.42-29.457 1.344-24.522 12.708-2.572-1.453-3.097-1.715-4.515-2.572-7.088-2.19 16.908-34.058 29.038-10.135z"/><path d="M202.876 207.58c10.125-10.585 17.31-12.544 20.07-13.052-4.327-3.41-2.106-2.692-5.087-2.86-3.03.494-20.276 10.358-14.984 15.91z"/><path d="M217.86 191.667c-3.03.495-19.95 10.36-14.657 15.912 9.862-10.453 17.244-12.413 19.742-13.052"/><path d="M216.398 217.108c-14.214-15.09-28.93-14.015-33.25-13.587 1.436 1.765 2.097 2.547 3.658 3.724 2.35.335 11.965-1.844 29.592 9.864z"/><path d="M189.484 220.83c1.83-14.045-6.794-20.208-15.22-20.185-8.623-.08-11.694 4.897-14.372 8.424 5.03-6.142 27.045-13.718 29.592 11.76z"/><path d="M107.503 205.35c-2.74-.198-.914-.132-6.598 0 14.96-14.372 48.406-17.834 66.505-3.388-.854 1.688-.593 1.1-3.27 2.126-7.646-3.046-29.463-15.33-56.637 1.26z"/><path d="M98.357 205.622c2.096.255 2.547.196 3.74-.3-.408-4.338-24.774-26.026-44.96-20.54 1.305 1.57 1.895 1.503 3.303 2.744 4.668-.652 25.05.196 37.917 18.096z"/><path d="M66.48 218.75c7.838-23.386-11.07-39.455-20.904-40.042.392 2.155.675 1.828.98 3.397 13.456 3.658 21.426 18.42 19.924 36.645z"/><path d="M48.32 204.976c2.546-16.85-2.744-38.474-17.64-48.468 1.112 3.854 1.57 4.703 1.765 7.12 1.242 1.568 12.15 7.12 15.874 41.348z"/><path d="M33.602 175.85c2.567-26.47-18.886-41.95-23.364-42.865-.68 2.22-.225 2.48-.27 4.13 6.147 1.043 21.63 16.2 23.634 38.736zM82.53 211.617c3.918.59 3.873.26 6.55.58 21.166-9.145 41.025 4.116 47.1 13.71 1.83.104 2.81.205 3.79-.17-17.64-30.067-51.888-20.315-57.44-14.12z"/><path d="M64.585 224.413c5.355-6.93 21.49-19.437 35.078-.195.72.037 1.984.136 2.435.195-4.1-12.537-26.32-22-37.513 0z"/><path d="M81.582 240.39c6.902-22.863 29.667-18.166 37.313-6.483-.164.946-.453.724-1.594 1.41-16.712-18.994-33.633-2.313-35.718 5.074z"/><path d="M112.09 243.458c20.778-40.98 68.954-3.498 45.836 26.396 16.614-25.618-20.542-62.304-45.835-26.396z"/><path d="M179.717 239.475c-1.1.2-1.552.165-2.53 0-7.466-11.744-20.896-9.094-23.707-7.898-.982-.474-.982-.474-2.23-1.645 16.362-7.923 27.805 5.387 28.467 9.543zM179.717 239.475c-1.046.27-1.046.27-2.53 0"/><path d="M195.134 264.255c-.24-18.608-15.176-30.718-31.923-17.832 12.202-13.28 35.056-8.123 31.924 17.832zM129.012 267.743c-2.47-13.55-20.776-13.85-23.546-.783 0-15.778 23.546-15.778 23.546.783z"/><path d="M95.89 259.432c5.12-13.308 18.368-9.937 22.102-3.795-.907.32-1.437.048-2.59.313-7.047-8.325-16.635-1.98-19.51 3.482z"/></g></g></svg>